<?xml version="1.0" standalone="no"?>
<!DOCTYPE svg PUBLIC "-//W3C//DTD SVG 20010904//EN"
 "http://www.w3.org/TR/2001/REC-SVG-20010904/DTD/svg10.dtd">
<svg version="1.0" xmlns="http://www.w3.org/2000/svg"
 width="700.000000pt" height="700.000000pt" viewBox="0 0 700.000000 700.000000"
 preserveAspectRatio="xMidYMid meet">
<metadata>
Created by potrace 1.14, written by Peter Selinger 2001-2017
</metadata>
<g transform="translate(0.000000,700.000000) scale(0.100000,-0.100000)"
fill="#000000" stroke="none">
<path d="M0 3500 l0 -3500 3500 0 3500 0 0 3500 0 3500 -3500 0 -3500 0 0
-3500z m3885 2651 c731 -111 1344 -473 1770 -1046 676 -910 710 -2144 84
-3074 -454 -675 -1165 -1104 -1976 -1191 -146 -16 -531 -8 -668 14 -445 72
-863 252 -1219 524 -135 104 -350 313 -453 442 -180 223 -346 514 -438 764
-185 502 -213 1071 -80 1590 88 344 250 678 472 969 92 121 323 356 443 451
417 331 921 530 1470 580 110 10 469 -4 595 -23z"/>
<path d="M3403 5499 c-593 -60 -1096 -500 -1218 -1064 -8 -38 -20 -157 -27
-263 -13 -216 -4 -505 32 -997 22 -297 24 -441 10 -555 -29 -230 -98 -386
-247 -556 -38 -43 -80 -97 -93 -118 -23 -38 -23 -39 -4 -53 42 -32 112 -56
179 -60 95 -7 157 18 260 102 110 90 171 119 263 124 68 3 79 1 145 -33 40
-19 101 -61 137 -91 84 -72 150 -105 211 -105 74 0 98 13 283 157 132 104 300
94 474 -28 97 -68 145 -87 244 -100 208 -26 413 46 586 207 120 111 203 230
261 377 61 154 62 174 58 1039 -4 860 -3 840 -68 1045 -64 203 -173 385 -324
542 -163 169 -356 292 -576 365 -181 61 -395 85 -586 65z m1081 -1001 c59 -18
128 -90 146 -153 19 -67 20 -383 1 -440 -34 -102 -124 -161 -234 -153 -114 8
-184 65 -206 169 -14 65 -14 343 0 408 29 135 157 209 293 169z m-626 -33 c47
-20 78 -50 105 -100 20 -36 22 -58 25 -235 2 -128 0 -209 -8 -235 -19 -64 -57
-112 -113 -140 -118 -59 -264 -10 -316 105 -23 53 -29 388 -7 464 31 104 100
155 214 156 34 0 79 -7 100 -15z"/>
</g>
</svg>
