<svg xmlns="http://www.w3.org/2000/svg" width="256" height="256" fill="none" viewBox="0 0 256 256">
  <path fill="#F8F8F2" fill-opacity=".4" d="M127.79 30c54.92 0 98.37 43.42 98.46 98 .08 54.8-45.78 98.73-100.32 97.81-52.51-.9-96.01-44.67-95.93-98.17A97.557 97.557 0 01127.79 30zM67.13 186.39c6.17 4 11.46 3.6 16.64-1 7.29-6.48 13-6.5 20.13-.09 5.77 5.21 9.84 5.17 15.66-.16 5.64-5.15 10.41-5.84 17.28-2.4 2.37 1.19 4.16 3.323 6.66 4.26 4 1.5 9.64 1.55 13.79.51 12.69-3.19 23.72-17.53 24-30.7.33-16.61.2-33.23.1-49.84a57.645 57.645 0 00-1.17-11.36 51.508 51.508 0 00-52.87-40.93c-25 1.13-46.5 20.37-48.29 45.34-1.1 15.45.49 31.14 1.53 46.68.89 13.25-.24 25.5-10.59 35.3-1.239 1.173-1.91 2.93-2.87 4.39z"/>
  <path fill="#F8F8F2" fill-opacity=".4" d="M153 105.27c0-2-.13-4 0-6 .38-4.89 3.28-7.85 7.77-8.13a8.18 8.18 0 018.9 7.56c.385 4.301.385 8.629 0 12.93-.38 4.52-4.1 7.39-8.6 7.32-4.5-.07-7.64-3-8.07-7.74-.18-2 0-4 0-6v.06zM146.09 106.4c-.11 2.31.18 4.73-.4 6.91-1.1 4.1-4.16 6.31-8.41 6.39a7.998 7.998 0 01-8-7.36c-.267-4.108-.29-8.228-.07-12.34.24-4.95 3.57-8 8.32-8s8 3.09 8.41 8c.16 2.13.15 4.25.15 6.4z"/>
</svg>
