<svg xmlns="http://www.w3.org/2000/svg" width="512" height="512" fill="none" viewBox="0 0 512 512">
  <path fill="#44475A" d="M0 0h512v512H0z"/>
  <path fill="#F8F8F2" d="M255.58 60c109.84 0 196.74 86.841 196.92 196.001.16 109.6-91.56 197.46-200.64 195.62-105.02-1.8-192.02-89.34-191.86-196.34a195.12 195.12 0 01195.58-195.28zM134.26 372.781c12.34 8 22.92 7.2 33.28-2 14.58-12.96 26-13 40.26-.18 11.54 10.42 19.68 10.34 31.32-.32 11.28-10.3 20.82-11.68 34.56-4.8 4.74 2.38 8.32 6.645 13.32 8.52 8 3 19.28 3.1 27.58 1.02 25.38-6.38 47.44-35.06 48-61.4.66-33.22.4-66.46.2-99.68a115.361 115.361 0 00-2.34-22.72 103.017 103.017 0 00-105.74-81.86c-50 2.26-93 40.74-96.58 90.68-2.2 30.9.98 62.28 3.06 93.36 1.78 26.5-.48 51-21.18 70.6-2.478 2.346-3.82 5.86-5.74 8.78z"/>
  <path fill="#F8F8F2" d="M306 210.54c0-4-.26-8 0-12 .76-9.78 6.56-15.7 15.54-16.26a16.359 16.359 0 0117.8 15.12c.77 8.603.77 17.257 0 25.86-.76 9.04-8.2 14.78-17.2 14.64-9-.14-15.28-6-16.14-15.48-.36-4 0-8 0-12v.12zM292.18 212.801c-.22 4.62.36 9.46-.8 13.82-2.2 8.2-8.32 12.62-16.82 12.78a16.003 16.003 0 01-16-14.72 208.427 208.427 0 01-.14-24.68c.48-9.9 7.14-16 16.64-16s16 6.18 16.82 16c.32 4.26.3 8.5.3 12.8z"/>
</svg>
