<svg xmlns="http://www.w3.org/2000/svg" width="379" height="83" fill="none" viewBox="0 0 379 83">
  <path fill="#44475A" fill-opacity=".15" d="M166.901 12c16.231 0 29.072 13.082 29.099 29.526.024 16.511-13.53 29.747-29.649 29.47-15.519-.271-28.375-13.459-28.351-29.578a29.91 29.91 0 012.194-11.272 29.441 29.441 0 016.267-9.553 28.798 28.798 0 019.38-6.373 28.352 28.352 0 0111.06-2.22zM148.973 59.12c1.824 1.205 3.387 1.084 4.918-.301 2.155-1.953 3.842-1.959 5.95-.027 1.705 1.57 2.908 1.557 4.628-.049 1.667-1.551 3.076-1.76 5.107-.723.7.359 1.229 1.001 1.968 1.284 1.182.452 2.849.467 4.075.153 3.751-.96 7.011-5.281 7.093-9.25.098-5.004.06-10.011.03-15.016a17.715 17.715 0 00-.346-3.422 15.561 15.561 0 00-5.583-9.102 15.027 15.027 0 00-10.042-3.23c-7.389.34-13.743 6.137-14.272 13.66-.325 4.655.145 9.383.452 14.065.263 3.992-.07 7.683-3.129 10.635-.366.354-.565.883-.849 1.323z"/>
  <path fill="#44475A" fill-opacity=".15" d="M174.352 34.678c0-.603-.039-1.205 0-1.808.112-1.473.969-2.365 2.296-2.45a2.373 2.373 0 011.784.577 2.488 2.488 0 01.846 1.702 22.23 22.23 0 010 3.895c-.112 1.362-1.211 2.227-2.541 2.206-1.33-.021-2.258-.904-2.385-2.332-.053-.603 0-1.206 0-1.808v.018zM172.309 35.019c-.032.696.053 1.425-.118 2.082-.325 1.235-1.229 1.9-2.486 1.925a2.338 2.338 0 01-1.608-.637 2.432 2.432 0 01-.756-1.58 32.025 32.025 0 01-.021-3.718c.071-1.492 1.056-2.41 2.459-2.41 1.404 0 2.365.93 2.486 2.41.047.641.044 1.28.044 1.928z"/>
  <g>
    <path fill="#44475A" fill-opacity=".15" d="M235.208 32.36h5.12v31.232c0 5.376-1.301 9.515-3.904 12.416-2.603 2.901-6.379 4.352-11.328 4.352-4.907 0-9.387-1.088-13.44-3.264v-5.76h.32c3.627 2.347 7.872 3.52 12.736 3.52 6.528 0 9.792-3.477 9.792-10.432v-4.16h-.192c-2.944 3.157-6.464 4.736-10.56 4.736s-7.744-1.45-10.944-4.352c-3.157-2.944-4.736-7.04-4.736-12.288s1.579-9.323 4.736-12.224c3.2-2.944 6.848-4.416 10.944-4.416 4.096 0 7.616 1.579 10.56 4.736h.192l.704-4.096zm-.704 22.592V41.768c-3.072-3.157-6.272-4.736-9.6-4.736-3.285 0-5.952.981-8 2.944-2.005 1.92-3.008 4.715-3.008 8.384 0 3.67 1.003 6.485 3.008 8.448 2.048 1.92 4.715 2.88 8 2.88 3.328 0 6.528-1.579 9.6-4.736zm33.655-23.232c3.541 0 6.336 1.195 8.384 3.584 2.048 2.39 3.072 5.376 3.072 8.96V65h-5.824V44.904c0-5.205-2.347-7.808-7.04-7.808-3.712 0-7.211 2.048-10.496 6.144V65h-5.824V18.28h5.824v19.136h.192c3.456-3.797 7.36-5.696 11.712-5.696zm19.288 16.96c0-5.077 1.493-9.173 4.48-12.288s6.933-4.672 11.84-4.672c4.949 0 8.917 1.557 11.904 4.672 3.029 3.115 4.544 7.21 4.544 12.288 0 5.077-1.515 9.173-4.544 12.288-2.987 3.115-6.955 4.672-11.904 4.672-4.907 0-8.853-1.557-11.84-4.672-2.987-3.115-4.48-7.21-4.48-12.288zm8.96 8.768c2.133 1.92 4.608 2.88 7.424 2.88 2.816 0 5.269-.96 7.36-2.88 2.133-1.963 3.2-4.885 3.2-8.768 0-3.925-1.067-6.848-3.2-8.768-2.091-1.92-4.544-2.88-7.36-2.88-2.816 0-5.291.96-7.424 2.88-2.091 1.92-3.136 4.843-3.136 8.768 0 3.883 1.045 6.805 3.136 8.768zm43.801-20.416c-2.73 0-4.757.427-6.079 1.28-1.28.81-1.92 1.856-1.92 3.136 0 1.237.661 2.197 1.984 2.88 1.322.683 2.922 1.237 4.8 1.664a53.2 53.2 0 015.696 1.472 10.831 10.831 0 014.8 3.072c1.322 1.45 1.984 3.435 1.984 5.952s-1.088 4.672-3.264 6.464c-2.134 1.792-5.334 2.688-9.6 2.688-4.224 0-8.086-.96-11.584-2.88v-5.568h.32c3.456 2.048 7.253 3.072 11.392 3.072 4.736 0 7.104-1.515 7.104-4.544 0-.981-.662-1.77-1.984-2.368-1.323-.64-2.923-1.173-4.8-1.6a68.936 68.936 0 01-5.632-1.536c-1.878-.597-3.478-1.6-4.8-3.008-1.323-1.408-1.984-3.2-1.984-5.376 0-2.987 1.066-5.419 3.2-7.296 2.176-1.877 5.12-2.816 8.832-2.816 3.712 0 7.168.597 10.368 1.792v5.312h-.448c-2.859-1.195-5.654-1.792-8.385-1.792zm36.127.32h-9.28V56.68c0 1.792.49 2.901 1.472 3.328.81.341 1.856.512 3.136.512s2.688-.341 4.224-1.024h.448v4.736a12.232 12.232 0 01-5.76 1.408c-6.23 0-9.344-2.816-9.344-8.448v-19.84h-6.08v-.384l11.904-11.648v7.04h9.28v4.992zM30.848 40.36c-3.157-2.133-6.592-3.2-10.304-3.2-3.67 0-6.55 1.067-8.64 3.2-2.09 2.09-3.136 4.864-3.136 8.32 0 3.456 1.045 6.25 3.136 8.384 2.09 2.09 4.97 3.136 8.64 3.136 3.712 0 7.147-1.067 10.304-3.2h.256v5.504c-3.541 2.09-7.232 3.136-11.072 3.136-4.736 0-8.768-1.536-12.096-4.608-3.328-3.072-4.992-7.19-4.992-12.352 0-5.163 1.664-9.28 4.992-12.352 3.328-3.072 7.36-4.608 12.096-4.608 3.84 0 7.53 1.045 11.072 3.136v5.504h-.256zm6.537 8.32c0-5.077 1.493-9.173 4.48-12.288 2.986-3.115 6.933-4.672 11.84-4.672 4.949 0 8.917 1.557 11.904 4.672 3.029 3.115 4.544 7.21 4.544 12.288 0 5.077-1.515 9.173-4.544 12.288-2.987 3.115-6.955 4.672-11.904 4.672-4.907 0-8.854-1.557-11.84-4.672-2.987-3.115-4.48-7.21-4.48-12.288zm8.96 8.768c2.133 1.92 4.608 2.88 7.424 2.88 2.816 0 5.269-.96 7.36-2.88 2.133-1.963 3.2-4.885 3.2-8.768 0-3.925-1.067-6.848-3.2-8.768-2.091-1.92-4.544-2.88-7.36-2.88-2.816 0-5.291.96-7.425 2.88-2.09 1.92-3.136 4.843-3.136 8.768 0 3.883 1.046 6.805 3.136 8.768zM78.561 65V32.36h5.824V65h-5.824zm6.08-45.824v6.272H78.37v-6.272h6.272zm27.83 12.544c3.541 0 6.336 1.195 8.384 3.584 2.048 2.39 3.072 5.376 3.072 8.96V65h-5.824V44.904c0-5.205-2.347-7.808-7.04-7.808-3.712 0-7.211 2.048-10.496 6.144V65h-5.825V32.36h5.12l.705 4.096v.96h.128c3.456-3.797 7.381-5.696 11.776-5.696z"/>
  </g>
</svg>
